<svg width="61" height="63" viewBox="0 0 61 63" fill="none" xmlns="http://www.w3.org/2000/svg">
<path fill-rule="evenodd" clip-rule="evenodd" d="M30.7677 0.39505C41.9553 7.07793 52.0621 10.2396 60.7361 9.49217C62.251 38.3669 50.9357 55.4192 30.8836 62.536C11.5195 55.8749 0.0657879 39.5563 0.915265 9.05423C11.0977 9.55639 21.0875 7.48199 30.7677 0.39505ZM30.7795 3.96279C40.6824 9.87802 49.629 12.6771 57.3071 12.0151C58.6475 37.5739 48.632 52.6687 30.8831 58.9678C13.7422 53.0718 3.60268 38.6278 4.35503 11.6273C13.3687 12.0723 22.2112 10.2361 30.7795 3.96279Z" fill="black"/>
<circle cx="45.5" cy="19.359" r="2" fill="#00EE4D"/>
<circle cx="45.5" cy="19.359" r="2" fill="#00EE4D"/>
<circle cx="45.5" cy="19.359" r="2" fill="#00EE4D"/>
<circle cx="45.5" cy="19.359" r="2" stroke="#00EE4D"/>
<circle cx="33.5" cy="22.359" r="2" fill="#00EE4D"/>
<circle cx="33.5" cy="22.359" r="2" fill="#00EE4D"/>
<circle cx="33.5" cy="22.359" r="2" fill="#00EE4D"/>
<circle cx="33.5" cy="22.359" r="2" stroke="#00EE4D"/>
<circle cx="45.5" cy="29.359" r="2" fill="#00EE4D"/>
<circle cx="45.5" cy="29.359" r="2" fill="#00EE4D"/>
<circle cx="45.5" cy="29.359" r="2" fill="#00EE4D"/>
<circle cx="45.5" cy="29.359" r="2" stroke="#00EE4D"/>
</svg>
