<svg width="158" height="71" viewBox="0 0 158 71" fill="none" xmlns="http://www.w3.org/2000/svg">
<path d="M140.796 33.585L124.594 11.4496C123.788 10.3484 122.63 9.71679 121.417 9.71679H106.599V9.1122C106.599 4.0878 103.233 0 99.0976 0H49.3731C45.2366 0.00134955 41.8711 4.08915 41.8711 9.11354V56.4802C41.8711 59.4749 43.8766 61.9108 46.341 61.9108H57.8674C58.7863 66.7328 62.344 70.3415 66.5894 70.3415C70.8349 70.3415 74.3926 66.7328 75.3115 61.9108H103.303H106.6H118.489C119.408 66.7328 122.966 70.3415 127.211 70.3415C131.457 70.3415 135.015 66.7328 135.933 61.9108H137.621C139.964 61.9108 141.871 59.5963 141.871 56.7488V37.0156C141.869 35.7511 141.488 34.5324 140.796 33.585ZM136.55 33.8117H117.354C116.981 33.8117 116.677 33.442 116.677 32.9885V22.4822C116.677 22.0288 116.981 21.6604 117.354 21.6604H127.656L136.55 33.8117ZM49.3731 4.00548H99.0976C101.415 4.00548 103.302 6.29702 103.302 9.11354V9.71814V39.8429H45.1677V9.11354C45.1677 6.29702 47.0543 4.00548 49.3731 4.00548ZM66.5883 66.336C63.4662 66.336 60.9251 63.2509 60.9251 59.4573C60.9251 55.6637 63.4662 52.5787 66.5883 52.5787C69.7105 52.5787 72.2515 55.6637 72.2515 59.4573C72.2515 63.2509 69.7116 66.336 66.5883 66.336ZM75.4459 57.9053C74.8226 52.6394 71.0938 48.5759 66.5883 48.5759C62.0829 48.5759 58.3541 52.6394 57.7307 57.9053H46.341C45.6943 57.9053 45.1677 57.2657 45.1677 56.4789V43.8457H103.302V57.904L75.4459 57.9053ZM127.21 66.336C124.087 66.336 121.547 63.2509 121.547 59.4573C121.547 55.6637 124.087 52.5787 127.21 52.5787C130.334 52.5787 132.874 55.6637 132.874 59.4573C132.874 63.2509 130.332 66.336 127.21 66.336ZM137.619 57.9053H136.067C135.443 52.6394 131.715 48.5759 127.209 48.5759C122.704 48.5759 118.975 52.6394 118.352 57.9053H106.599V13.7209H121.417C121.688 13.7209 121.948 13.8626 122.129 14.1096L124.724 17.6549H117.353C115.162 17.6549 113.38 19.8196 113.38 22.4809V32.9872C113.38 35.6485 115.162 37.8145 117.353 37.8145H138.571V56.7474C138.572 57.3871 138.146 57.9053 137.619 57.9053Z" fill="black"/>
<circle cx="33.4658" cy="55.5" r="2" fill="#00EE4D" stroke="#00EE4D"/>
<circle cx="23.4658" cy="50.5" r="2" fill="#00EE4D" stroke="#00EE4D"/>
<circle cx="13.4658" cy="55.5" r="2" fill="#00EE4D" stroke="#00EE4D"/>
<line x1="148.776" y1="44.5528" x2="156.826" y2="40.5279" stroke="#00EE4D"/>
<line x1="149" y1="47.5" x2="158" y2="47.5" stroke="#00EE4D"/>
<line x1="149.224" y1="50.5528" x2="157.273" y2="54.5784" stroke="#00EE4D"/>
<circle cx="3.46582" cy="50.5" r="2" fill="#00EE4D" stroke="#00EE4D"/>
</svg>
