<svg width="72" height="71" viewBox="0 0 72 71" fill="none" xmlns="http://www.w3.org/2000/svg">
<path d="M36.0556 70.859C16.7566 70.859 1.05566 54.658 1.05566 35.359C1.05566 16.06 16.7567 0.859009 36.0557 0.859009C55.3547 0.859009 71.0557 16.06 71.0557 35.359C71.0557 54.658 55.3546 70.859 36.0556 70.859ZM36.0557 3.85901C19.7589 3.85901 4.00011 19.0622 4.00011 35.359C4.00011 51.6558 19.7588 67.859 36.0556 67.859C52.3523 67.859 68.1201 51.6558 68.1201 35.359C68.1201 19.0622 52.3524 3.85901 36.0557 3.85901Z" fill="black"/>
<path d="M34.6032 49.3775C33.9894 49.3775 33.4058 49.0201 33.006 48.3961L22.5066 32.0334C21.7504 30.8545 21.8526 29.0796 22.7344 28.0692C23.6156 27.0589 24.9446 27.1947 25.7008 28.3736L34.6032 43.359L47 22.359C47.7303 21.1495 48.8301 20.5079 49.7347 21.4813C50.6394 22.4563 50.7818 24.2255 50.0527 25.4342L36.2412 48.3303C35.8486 48.9808 35.2602 49.3639 34.635 49.3775C34.6242 49.3775 34.6134 49.3775 34.6032 49.3775Z" fill="black"/>
<path d="M50.5 12.359C50.5 12.9113 50.0523 13.359 49.5 13.359C48.9477 13.359 48.5 12.9113 48.5 12.359C48.5 11.8067 48.9477 11.359 49.5 11.359C50.0523 11.359 50.5 11.8067 50.5 12.359Z" fill="#00EE4D"/>
<path d="M50.5 12.359C50.5 12.9113 50.0523 13.359 49.5 13.359C48.9477 13.359 48.5 12.9113 48.5 12.359C48.5 11.8067 48.9477 11.359 49.5 11.359C50.0523 11.359 50.5 11.8067 50.5 12.359Z" fill="#00EE4D"/>
<path d="M50.5 12.359C50.5 12.9113 50.0523 13.359 49.5 13.359C48.9477 13.359 48.5 12.9113 48.5 12.359C48.5 11.8067 48.9477 11.359 49.5 11.359C50.0523 11.359 50.5 11.8067 50.5 12.359Z" fill="#00EE4D"/>
<path d="M50.5 12.359C50.5 12.9113 50.0523 13.359 49.5 13.359C48.9477 13.359 48.5 12.9113 48.5 12.359C48.5 11.8067 48.9477 11.359 49.5 11.359C50.0523 11.359 50.5 11.8067 50.5 12.359Z" stroke="#00EE4D"/>
<path d="M55.75 13.359C55.75 13.7732 55.4142 14.109 55 14.109C54.5858 14.109 54.25 13.7732 54.25 13.359C54.25 12.9448 54.5858 12.609 55 12.609C55.4142 12.609 55.75 12.9448 55.75 13.359Z" fill="#00EE4D"/>
<path d="M55.75 13.359C55.75 13.7732 55.4142 14.109 55 14.109C54.5858 14.109 54.25 13.7732 54.25 13.359C54.25 12.9448 54.5858 12.609 55 12.609C55.4142 12.609 55.75 12.9448 55.75 13.359Z" fill="#00EE4D"/>
<path d="M55.75 13.359C55.75 13.7732 55.4142 14.109 55 14.109C54.5858 14.109 54.25 13.7732 54.25 13.359C54.25 12.9448 54.5858 12.609 55 12.609C55.4142 12.609 55.75 12.9448 55.75 13.359Z" fill="#00EE4D"/>
<path d="M55.75 13.359C55.75 13.7732 55.4142 14.109 55 14.109C54.5858 14.109 54.25 13.7732 54.25 13.359C54.25 12.9448 54.5858 12.609 55 12.609C55.4142 12.609 55.75 12.9448 55.75 13.359Z" stroke="#00EE4D" stroke-width="0.5"/>
<path d="M57.5 16.859C57.5 17.1351 57.2761 17.359 57 17.359C56.7239 17.359 56.5 17.1351 56.5 16.859C56.5 16.5828 56.7239 16.359 57 16.359C57.2761 16.359 57.5 16.5828 57.5 16.859Z" fill="white"/>
<path d="M57.5 16.859C57.5 17.1351 57.2761 17.359 57 17.359C56.7239 17.359 56.5 17.1351 56.5 16.859C56.5 16.5828 56.7239 16.359 57 16.359C57.2761 16.359 57.5 16.5828 57.5 16.859Z" fill="white"/>
<path d="M57.5 16.859C57.5 17.1351 57.2761 17.359 57 17.359C56.7239 17.359 56.5 17.1351 56.5 16.859C56.5 16.5828 56.7239 16.359 57 16.359C57.2761 16.359 57.5 16.5828 57.5 16.859Z" fill="white"/>
<path d="M57.5 16.859C57.5 17.1351 57.2761 17.359 57 17.359C56.7239 17.359 56.5 17.1351 56.5 16.859C56.5 16.5828 56.7239 16.359 57 16.359C57.2761 16.359 57.5 16.5828 57.5 16.859Z" stroke="#00EE4D"/>
<path d="M54.75 18.359C54.75 19.6016 53.7426 20.609 52.5 20.609C51.2574 20.609 50.25 19.6016 50.25 18.359C50.25 17.1163 51.2574 16.109 52.5 16.109C53.7426 16.109 54.75 17.1163 54.75 18.359Z" fill="#00EE4D"/>
<path d="M54.75 18.359C54.75 19.6016 53.7426 20.609 52.5 20.609C51.2574 20.609 50.25 19.6016 50.25 18.359C50.25 17.1163 51.2574 16.109 52.5 16.109C53.7426 16.109 54.75 17.1163 54.75 18.359Z" fill="#00EE4D"/>
<path d="M54.75 18.359C54.75 19.6016 53.7426 20.609 52.5 20.609C51.2574 20.609 50.25 19.6016 50.25 18.359C50.25 17.1163 51.2574 16.109 52.5 16.109C53.7426 16.109 54.75 17.1163 54.75 18.359Z" fill="#00EE4D"/>
<path d="M54.75 18.359C54.75 19.6016 53.7426 20.609 52.5 20.609C51.2574 20.609 50.25 19.6016 50.25 18.359C50.25 17.1163 51.2574 16.109 52.5 16.109C53.7426 16.109 54.75 17.1163 54.75 18.359Z" stroke="#00EE4D" stroke-width="0.5"/>
</svg>
