<svg width="188" height="212" fill="none" xmlns="http://www.w3.org/2000/svg"><path d="M80.872 146.079c1.33 2.239 1.252 2.714-.35 3.987-5.25 4.181-10.47 8.389-15.705 12.572-.956.765-1.906 1.538-2.911 2.229a2.884 2.884 0 0 1-3.65-.047 7.582 7.582 0 0 1 1.173-1.998c2.048-1.827 4.194-3.528 6.303-5.265 3.093-2.568 6.174-5.153 9.33-7.716a60.227 60.227 0 0 1 4.017-2.987 8.927 8.927 0 0 1 1.793-.775ZM106.73 147.129c1.246 2.778 1.221 2.795-.599 4.227a3719.188 3719.188 0 0 1-15.46 11.791c-1.59 1.218-2.103 1.226-4.244-.285a14.1 14.1 0 0 1 1.576-1.775c2.42-1.97 4.87-3.904 7.352-5.803a551.276 551.276 0 0 1 8.594-6.448c.823-.604 1.75-1.072 2.781-1.707ZM153.908 82.522c-2.639 1.936-5.246 3.9-7.926 5.792a3.162 3.162 0 0 1-1.855.576 1.893 1.893 0 0 1-1.464-.81 1.822 1.822 0 0 1 .511-1.55 36.678 36.678 0 0 1 4.171-3.526c4.344-2.93 8.697-5.866 13.077-8.76l.572-.386c.664-.447 1.447-.77 2.031.006a2.003 2.003 0 0 1-.039 2.535 6.37 6.37 0 0 1-1.423 1.128c-2.487 1.678-5.048 3.406-7.569 5.105l-.086-.11ZM38.76 159.237c.511-1.925 1.94-2.9 3.233-3.881 1.93-1.483 4.037-2.723 6.012-4.14 2.97-2.124 5.885-4.331 8.885-6.499.66-.439 1.344-.84 2.049-1.201 1.386 2.358 1.35 2.841-.477 4.157-5.337 3.926-10.689 7.813-16.031 11.73a2.671 2.671 0 0 1-3.67-.166ZM105.489 108.933c.418-.595.894-1.147 1.422-1.647 3.176-2.444 6.358-4.88 9.657-7.286 2.03-1.478 4.145-2.796 6.242-4.21.763-.515 1.659-1.119 2.369-.066a2.152 2.152 0 0 1 .323 1.625 2.147 2.147 0 0 1-.934 1.368l-14.895 10.59c-1.61 1.207-2.224 1.138-4.184-.374ZM160.912 117.156c.913-2.099 2.579-3.331 4.147-4.582 3.994-3.164 8.127-6.157 12.201-9.219l.564-.38c.713-.481 1.492-1.006 2.188-.028a2.001 2.001 0 0 1-.134 2.502 7.658 7.658 0 0 1-1.405 1.153c-3.853 2.961-7.72 5.919-11.57 8.902a24.937 24.937 0 0 0-2.051 1.806c-1.382 1.366-1.959 1.369-3.94-.154ZM72.982 134.489c.605-.73 1.267-1.41 1.98-2.035 4.788-3.507 9.618-6.969 14.428-10.443.237-.19.489-.36.754-.509 1.215-.578 2.197.038 2.007 1.385a3.142 3.142 0 0 1-1.007 1.886 333.118 333.118 0 0 1-9.09 6.891c-1.531 1.129-3.151 2.125-4.735 3.193-1.379.942-2.635.921-4.337-.368ZM157.642 98.52a4.529 4.529 0 0 1-2.116 3.767c-3.977 3.044-7.899 6.171-11.942 9.261a3.407 3.407 0 0 1-1.832.861 3.067 3.067 0 0 1-1.954-.841c-.14-.207.254-1.233.659-1.651a17.59 17.59 0 0 1 2.374-2.132c3.717-2.929 7.44-5.851 11.18-8.747 1.063-.802 2.182-1.593 3.631-.519ZM126.56 139.35a4.182 4.182 0 0 1 2.071-2.832c4.293-3.041 8.632-6.015 12.959-9.006.713-.481 1.451-.979 2.246-.14a2.187 2.187 0 0 1-.318 2.892c-.894.712-1.898 1.28-2.843 1.918-3.36 2.387-6.703 4.798-10.054 7.179-1.771 1.255-2.409 1.239-4.061-.011ZM101.868 135.934a13.676 13.676 0 0 1 1.85-2.141c4.005-3.003 8.055-5.94 12.152-8.932.119-.098.246-.185.382-.258.81-.353 1.658-1.118 2.418.01a2.352 2.352 0 0 1-.348 2.72c-.278.261-.58.497-.901.703l-8.957 6.392c-.696.47-1.393.939-2.014 1.503-1.775 1.463-2.119 1.49-4.582.003ZM58.602 189.012c.542-.77 1.16-1.483 1.847-2.126 4.006-3.004 8.106-5.974 12.161-8.939.115-.102.244-.188.381-.257.811-.354 1.617-1.09 2.424.017A2.34 2.34 0 0 1 75 180.4c-.272.263-.57.499-.886.706l-8.958 6.392c-.696.47-1.392.939-2.013 1.503-1.729 1.479-2.095 1.473-4.54.011ZM177.115 83.165a10.51 10.51 0 0 1 1.585-1.745c4.22-2.846 8.482-5.612 12.741-8.4.572-.386 1.119-.755 1.851-.188a1.87 1.87 0 0 1-.003 2.91 17.35 17.35 0 0 1-1.891 1.274l-9.451 6.375c-2.017 1.3-2.627 1.29-4.832-.226ZM78.431 90.222c1.33 2.24 1.252 2.714-.35 3.987-5.25 4.18-10.469 8.389-15.705 12.572-.955.765-1.905 1.538-2.911 2.229a2.884 2.884 0 0 1-3.65-.047 7.576 7.576 0 0 1 1.173-1.998c2.048-1.828 4.194-3.528 6.304-5.265 3.092-2.568 6.173-5.153 9.33-7.716a60.151 60.151 0 0 1 4.016-2.987 8.872 8.872 0 0 1 1.793-.775ZM104.289 91.272c1.247 2.778 1.222 2.794-.598 4.227a3741.982 3741.982 0 0 1-15.46 11.791c-1.591 1.218-2.104 1.226-4.245-.285a14.093 14.093 0 0 1 1.577-1.775c2.419-1.97 4.87-3.904 7.352-5.803a555.056 555.056 0 0 1 8.593-6.448c.823-.604 1.75-1.072 2.781-1.707ZM151.467 26.665c-2.638 1.936-5.246 3.9-7.926 5.792a3.162 3.162 0 0 1-1.855.576 1.885 1.885 0 0 1-1.463-.81 1.821 1.821 0 0 1 .51-1.55 36.612 36.612 0 0 1 4.172-3.526c4.344-2.93 8.696-5.866 13.077-8.76l.572-.386c.663-.448 1.446-.77 2.03.005a2.003 2.003 0 0 1-.039 2.536 6.385 6.385 0 0 1-1.422 1.128l-7.569 5.105-.087-.11ZM36.32 103.38c.51-1.925 1.94-2.901 3.232-3.881 1.93-1.483 4.038-2.723 6.013-4.14 2.97-2.124 5.884-4.331 8.884-6.5.66-.438 1.344-.84 2.05-1.2 1.385 2.358 1.349 2.84-.478 4.157-5.337 3.925-10.688 7.812-16.031 11.73a2.672 2.672 0 0 1-3.67-.166ZM103.048 53.076c.418-.595.895-1.147 1.422-1.647 3.177-2.444 6.359-4.88 9.657-7.286 2.031-1.478 4.145-2.796 6.243-4.21.762-.515 1.658-1.119 2.368-.066a2.134 2.134 0 0 1 .323 1.625 2.148 2.148 0 0 1-.934 1.368l-14.894 10.59c-1.611 1.207-2.224 1.138-4.185-.374ZM158.472 61.299c.912-2.099 2.578-3.331 4.146-4.582 3.994-3.164 8.127-6.157 12.201-9.219l.564-.38c.713-.481 1.492-1.007 2.188-.029a2.003 2.003 0 0 1-.133 2.503 7.656 7.656 0 0 1-1.406 1.153c-3.853 2.96-7.72 5.919-11.57 8.902a25.044 25.044 0 0 0-2.051 1.805c-1.382 1.367-1.959 1.37-3.939-.153ZM70.542 78.632c.604-.73 1.267-1.41 1.98-2.035 4.788-3.507 9.617-6.97 14.427-10.443.237-.19.49-.36.754-.509 1.215-.578 2.197.038 2.008 1.385a3.14 3.14 0 0 1-1.008 1.885 333.081 333.081 0 0 1-9.09 6.892c-1.531 1.129-3.15 2.125-4.734 3.193-1.38.942-2.636.921-4.337-.368ZM155.201 42.662a4.523 4.523 0 0 1-2.115 3.767c-3.978 3.044-7.899 6.172-11.943 9.261a3.401 3.401 0 0 1-1.832.862 3.072 3.072 0 0 1-1.954-.841c-.14-.207.254-1.233.66-1.651a17.514 17.514 0 0 1 2.373-2.132c3.718-2.93 7.441-5.85 11.18-8.747 1.064-.802 2.183-1.593 3.631-.52ZM124.12 83.493a4.166 4.166 0 0 1 2.07-2.832c4.294-3.04 8.632-6.015 12.959-9.006.713-.481 1.451-.979 2.246-.14a2.194 2.194 0 0 1-.317 2.892c-.895.712-1.899 1.28-2.844 1.918-3.36 2.386-6.703 4.798-10.054 7.18-1.771 1.254-2.409 1.238-4.06-.012ZM99.428 80.076a13.687 13.687 0 0 1 1.849-2.14c4.005-3.003 8.056-5.94 12.153-8.933.118-.097.246-.184.381-.257.811-.354 1.658-1.118 2.418.01a2.346 2.346 0 0 1-.348 2.72 6.166 6.166 0 0 1-.901.703l-8.957 6.392c-.696.47-1.393.94-2.014 1.503-1.775 1.463-2.119 1.49-4.581.002ZM56.162 133.155a13.715 13.715 0 0 1 1.846-2.127c4.006-3.003 8.106-5.973 12.161-8.938.116-.102.244-.188.382-.257.81-.354 1.616-1.091 2.424.017a2.34 2.34 0 0 1-.415 2.693c-.273.263-.57.499-.887.706l-8.957 6.392c-.697.47-1.393.939-2.014 1.503-1.728 1.479-2.094 1.473-4.54.011ZM174.674 27.308c.461-.64.993-1.225 1.585-1.745 4.22-2.846 8.482-5.612 12.741-8.4.572-.387 1.119-.756 1.852-.188a1.878 1.878 0 0 1 .693 1.455 1.874 1.874 0 0 1-.697 1.454c-.601.466-1.233.892-1.89 1.275l-9.451 6.375c-2.018 1.3-2.628 1.29-4.833-.226Z" fill="#000"/><path d="M7.661 73.841c0-3.55 2.92-6.26 6.74-6.33 3.82-.07 6.68 2.58 6.66 6.31 0 4.09-3.2 7.67-6.81 7.68-3.86.01-6.63-3.21-6.59-7.66Zm10.52.2a3.44 3.44 0 0 0-3.66-3.62 3.61 3.61 0 0 0-3.83 3.45c-.15 2.79 1.08 4.55 3.29 4.68 2.02.11 4.12-2.1 4.2-4.51ZM137.341 108.041c3.89-.05 6.11 2 6.12 5.73 0 4.34-2.78 7.91-6.31 8.06-3.53.15-6.87-3.26-6.86-7.11.02-4.12 2.71-6.68 7.05-6.68Zm3.24 5.91c0-2.06-1.1-3.09-3.25-3.07a3.842 3.842 0 0 0-2.841.972 3.848 3.848 0 0 0-1.279 2.718c-.06 2.22 1.64 4.26 3.6 4.32 1.96.06 3.78-2.32 3.77-4.98v.04ZM139.001 171.171a5.792 5.792 0 0 1 4.276 1.526 5.784 5.784 0 0 1 1.854 4.144c-.06 3.29-2.3 8.06-6 8.11-3.7.05-6.76-3.28-6.82-7.24a6.832 6.832 0 0 1 6.69-6.54Zm3.13 5.87a2.785 2.785 0 0 0-1.882-2.762 2.787 2.787 0 0 0-1.178-.138c-1.93.13-3.87 2-3.83 3.64 0 2.14 1.91 4.33 3.63 4.27 1.72-.06 3.37-2.72 3.3-5.01h-.04ZM79.001 68.041a15.013 15.013 0 0 1-.21 1.77c-.76 3.31-3.3 5.74-6 5.76-2.7.02-5.7-2.53-6.53-5.65a4.73 4.73 0 0 1 2.07-5.6c1-.77 1.9-2 3-2.36 4.14-1.28 7.67 1.51 7.67 6.08Zm-6.2-3.44a4.6 4.6 0 0 0-3.8 4.07c.09 1.9 2 3.9 3.73 3.91 1.73.01 3.35-2.12 3.39-4.53.04-2.41-1.12-3.48-3.32-3.45ZM99.671 116.041a6.601 6.601 0 0 1-6.73 6.39c-3.38 0-6.31-3.15-6.34-6.84-.03-3.69 2.55-6.71 5.87-6.73 3.14.02 7.14 4.01 7.2 7.18Zm-7.32-4.19c-1.73.1-2.84 1.81-2.68 4.1.16 2.29 1.52 3.58 3.43 3.51 1.91-.07 3.72-1.7 3.66-3.4-.06-1.7-2.76-4.27-4.41-4.18v-.03ZM157.581 68.391c-.09 3.69-3.65 7.28-7.06 7.11-3.12-.15-5.73-3.5-5.89-6.93-.13-2.77 2.3-3.73 3.43-5.58.48-.8 2.2-1.15 3.36-1.17 3.3-.07 6.24 3.22 6.16 6.57Zm-3.06 0a3.636 3.636 0 0 0-3.19-3.8c-1.92-.09-3.69 1.85-3.72 4.07 0 1.9 1.54 3.88 3.11 3.93 1.57.05 3.76-2.18 3.8-4.17v-.03ZM171.201 107.541a24.106 24.106 0 0 1-1.15 3.93c-1.84 3.79-6.2 4.33-9 1.17a8.293 8.293 0 0 1-2-6c.1-2.79 1.18-4.29 3.67-5.13 2.67-.89 4.91-.46 6.44 1.66a25.28 25.28 0 0 1 2.04 4.37Zm-3.18.44c0-1.73-1-3.68-2.3-3.79a5.082 5.082 0 0 0-3 1c-1.35 1-.84 2.45-.44 3.75.63 2 1.92 3 3.36 2.73s2.36-1.84 2.36-3.69h.02ZM102.791 198.701a6.516 6.516 0 0 1 4.826 1.843 6.515 6.515 0 0 1 1.964 4.777c0 3.76-2.38 6.52-5.57 6.54-3.19.02-6.65-3.47-6.54-7.12.13-4.36 1.6-5.98 5.32-6.04Zm3.92 6.58a3.672 3.672 0 0 0-2.291-3.381 3.675 3.675 0 0 0-1.409-.269 2.612 2.612 0 0 0-2.55 3c0 2.25 1.71 4.34 3.49 4.34 1.54-.03 2.81-1.71 2.76-3.69ZM67.051 136.811a14.95 14.95 0 0 1 .95-3.09 4.872 4.872 0 0 1 4.74-2.79c2.83 0 6.13 3.65 6.44 7a5.999 5.999 0 0 1-5 6.39c-3.72.83-7.18-2.38-7.13-7.51Zm2.93.06c-.07 2.44.81 4 2.19 4.47 1.38.47 2.72.17 3.3-1a4.53 4.53 0 0 0 .23-3.47 9.145 9.145 0 0 0-3-3c-.27-.19-1.38.31-1.71.77a9.415 9.415 0 0 0-.99 2.23h-.02ZM114.191 54.781c.19-1.8.47-4.09 2.88-5 2.65-1 5.45-1.3 7.81.69a4.9 4.9 0 0 1 1.49 2.94 9.307 9.307 0 0 1-.58 4c-1.19 3.25-4.37 5.11-7.25 4.46-2.44-.52-4.32-3.42-4.35-7.09Zm2.92.33c0 2.3 1.22 4.11 2.76 4 1.84-.12 3.75-2.51 3.72-4.67 0-1.65-.91-2.37-3-2.42-2.35-.04-3.45.92-3.48 3.09ZM15.281 174.971c3.24 0 5.77 2.85 5.77 6.45a6.268 6.268 0 0 1-6.05 6.62c-3.29 0-6.19-3.29-6.21-7-.06-3.53 2.72-6.09 6.49-6.07Zm2.86 6.45c0-1.91-1.39-3.57-2.94-3.6a3.65 3.65 0 0 0-3.53 3.39c.09 2.11 1.81 4 3.56 3.85a3.531 3.531 0 0 0 2.91-3.64ZM109.241 88.981c-.164.782-.384 1.55-.66 2.3-1.23 3.06-4.14 4.63-6.77 3.73a6.381 6.381 0 0 1-3.74-7.54c.75-2.19 1.65-4.59 4.17-5.31 3.76-1.12 7.07 1.94 7 6.82Zm-2.88-1c-.16-1.23-.55-2.53-2.09-3-1.89-.63-2.27 1.06-2.93 2.06a3.315 3.315 0 0 0 .41 4.36 2.999 2.999 0 0 0 2.41.56c1.34-.24 2.25-2.1 2.2-4.01v.03ZM167.751 149.241a5.538 5.538 0 0 1-4.076-1.461 5.535 5.535 0 0 1-1.774-3.949c-.07-3.22 2.65-6.44 5.53-6.52 3.73-.12 6.89 2.42 7 5.6.09 3.53-2.78 6.26-6.68 6.33Zm-.8-8.91c-.44 1.71-3.42 2.77-1.41 5.16 1.11 1.33 2.62 1.12 4.05.39a2.867 2.867 0 0 0 1.86-3.26c-.27-1.45-1.75-2.18-4.45-2.29h-.05ZM5.931 107.861c.12-2.53 3.32-4.74 6.58-4.56 3.26.18 5.34 2.83 5.09 6.42s-2.52 6.07-5.36 5.91c-3.24-.18-6.48-4.17-6.31-7.77Zm8.77 1.38c0-2-1.2-3.22-2.85-3.11-1.65.11-3 1.51-2.91 2.83.1 1.59 2.19 3.78 3.56 3.73 1.18-.05 2.24-1.72 2.2-3.45ZM54.231 156.681c.05 3.37-2 5.71-5 5.8a6.74 6.74 0 0 1-6.62-6.19 5.572 5.572 0 0 1 5.69-5.93 6.148 6.148 0 0 1 5.93 6.32Zm-5.93-3.34a2.87 2.87 0 0 0-2.7 2.94 3.579 3.579 0 0 0 3.4 3.28 2.447 2.447 0 0 0 2.38-2.76 3.258 3.258 0 0 0-3.08-3.46ZM51.431 84.741a7.2 7.2 0 0 1-6.93 6.75c-2.81-.07-5-2.66-5-5.91 0-3.75 2.44-6.41 5.72-6.36 3.65.06 6.28 2.42 6.21 5.52Zm-9 1c0 1.68 1 2.84 2.31 2.81a4.41 4.41 0 0 0 3.79-3.78c0-1.46-1.58-2.69-3.39-2.66-1.65.01-2.77 1.5-2.7 3.61l-.01.02ZM6.131 152.401c-3.3-.1-6.2-3.45-6.13-7.08.06-2.61 2.93-5 6-5a6.232 6.232 0 0 1 6 6.24 5.616 5.616 0 0 1-3.59 5.468 5.618 5.618 0 0 1-2.28.372Zm3-5.93a3.467 3.467 0 0 0-3.29-3.27 3 3 0 0 0-2.84 2.78 3.782 3.782 0 0 0 3.53 3.49 2.842 2.842 0 0 0 2.59-3h.01ZM93.361 168.871c3.87 0 6.79 2.29 6.76 5.37a6.428 6.428 0 0 1-6 6c-3 .1-5.88-3-5.93-6.38-.07-3.19 1.81-4.96 5.17-4.99Zm-1.74 3.45c-.44 2.86 0 4.14 1.45 4.77 1.45.63 2.44-.13 3.31-1.06a2.154 2.154 0 0 0 .602-2.35 2.169 2.169 0 0 0-.442-.73c-1.42-1.55-3.17-1.42-4.92-.63ZM56.551 194.261c4.2 0 7 2.44 6.73 5.49a5.802 5.802 0 0 1-4.045 5.412 5.805 5.805 0 0 1-2.375.238c-3.25-.45-6.3-4.67-5.67-7.9.28-1.43.92-2.57 2.6-2.77 1.13-.12 2.21-.38 2.76-.47Zm-2.28 3.89c.6 3.18 2.08 4.75 3.91 4.32a3.141 3.141 0 0 0 2-3.49c-.51-1.94-2.68-2.28-5.91-.83ZM116.181 138.661c3.55 0 6 2 5.92 4.78a6.83 6.83 0 0 1-6.75 6.39 5.35 5.35 0 0 1-5.43-5.4c.08-3.48 2.58-5.81 6.26-5.77Zm3.63 4.16a19.093 19.093 0 0 0-3.39-1.28 2.689 2.689 0 0 0-3.19 1.89 3.663 3.663 0 0 0 .7 3c1.1 1.09 2.62.68 3.68-.34a21.552 21.552 0 0 0 2.2-3.27ZM38.171 123.041c0-2.8 2.52-4.87 5.83-4.79a5.24 5.24 0 0 1 5.14 5.35 5.769 5.769 0 0 1-5.39 6c-3.12.01-5.59-2.89-5.58-6.56Zm3-.74c-.21 2 .17 3.76 2.16 4.25a2.756 2.756 0 0 0 2.37-1.33 4.3 4.3 0 0 0-.4-3.44c-1.22-1.43-2.71-.52-4.16.49l.03.03Z" fill="#00EE4D"/></svg>