<svg width="130" height="211" fill="none" xmlns="http://www.w3.org/2000/svg"><path d="M41.908 40.522c-2.639 1.937-5.246 3.9-7.926 5.793a3.16 3.16 0 0 1-1.855.575 1.89 1.89 0 0 1-1.464-.81 1.82 1.82 0 0 1 .51-1.55 36.67 36.67 0 0 1 4.172-3.526c4.344-2.93 8.697-5.866 13.077-8.76l.572-.386c.663-.447 1.447-.77 2.03.006a2 2 0 0 1-.038 2.535 6.37 6.37 0 0 1-1.423 1.128l-7.569 5.106-.086-.11ZM-6.511 66.933c.418-.595.894-1.147 1.422-1.647 3.176-2.444 6.358-4.88 9.657-7.285 2.03-1.479 4.145-2.796 6.242-4.211.763-.515 1.658-1.119 2.369-.066a2.14 2.14 0 0 1-.611 2.994L-2.327 67.306c-1.61 1.207-2.224 1.138-4.184-.374ZM48.912 75.156c.913-2.099 2.578-3.33 4.147-4.582 3.993-3.164 8.126-6.157 12.2-9.218l.565-.38c.713-.482 1.492-1.007 2.188-.03a2 2 0 0 1-.134 2.503 7.67 7.67 0 0 1-1.405 1.153c-3.853 2.961-7.72 5.92-11.57 8.902-.716.564-1.401 1.167-2.051 1.806-1.383 1.366-1.96 1.37-3.94-.154ZM45.641 56.519a4.53 4.53 0 0 1-2.115 3.767c-3.977 3.044-7.899 6.172-11.943 9.261a3.4 3.4 0 0 1-1.831.862 3.07 3.07 0 0 1-1.954-.841c-.14-.207.254-1.233.66-1.651a17.544 17.544 0 0 1 2.373-2.132c3.717-2.93 7.44-5.85 11.18-8.747 1.063-.802 2.182-1.593 3.63-.519ZM14.56 97.35a4.169 4.169 0 0 1 2.07-2.832c4.294-3.04 8.633-6.015 12.96-9.006.713-.481 1.45-.979 2.245-.14a2.19 2.19 0 0 1-.317 2.892c-.895.712-1.898 1.28-2.843 1.918-3.36 2.387-6.703 4.798-10.054 7.18-1.771 1.254-2.41 1.238-4.06-.012ZM-10.132 93.933a13.714 13.714 0 0 1 1.85-2.14c4.005-3.003 8.055-5.94 12.152-8.932.118-.098.246-.184.381-.258.811-.353 1.659-1.118 2.419.01a2.35 2.35 0 0 1-.349 2.72c-.277.261-.579.497-.9.703l-8.957 6.392c-.697.47-1.393.94-2.014 1.503-1.775 1.463-2.12 1.49-4.582.002ZM65.115 41.165c.461-.64.993-1.225 1.585-1.745 4.22-2.846 8.482-5.613 12.74-8.4.573-.387 1.12-.756 1.852-.188a1.87 1.87 0 0 1-.004 2.91 17.34 17.34 0 0 1-1.89 1.274l-9.45 6.375c-2.018 1.3-2.629 1.29-4.833-.226ZM5.29 166.272c1.246 2.778 1.22 2.794-.6 4.227a3735.474 3735.474 0 0 1-15.459 11.791c-1.591 1.218-2.104 1.226-4.245-.285a14.101 14.101 0 0 1 1.577-1.775c2.419-1.97 4.87-3.904 7.352-5.804a551.87 551.87 0 0 1 8.593-6.447c.823-.604 1.75-1.072 2.781-1.707ZM52.467 101.665c-2.638 1.936-5.246 3.9-7.926 5.792a3.157 3.157 0 0 1-1.855.576 1.897 1.897 0 0 1-1.463-.81 1.822 1.822 0 0 1 .51-1.551 36.707 36.707 0 0 1 4.172-3.525c4.344-2.93 8.696-5.866 13.077-8.76l.572-.386c.663-.448 1.446-.77 2.03.005a2 2 0 0 1-.039 2.536 6.369 6.369 0 0 1-1.422 1.128l-7.57 5.105-.086-.11ZM4.048 128.076c.418-.595.895-1.147 1.422-1.647 3.177-2.444 6.359-4.88 9.657-7.286 2.03-1.478 4.145-2.796 6.243-4.21.762-.515 1.658-1.119 2.368-.066a2.141 2.141 0 0 1-.61 2.993L8.232 128.45c-1.61 1.207-2.224 1.138-4.185-.374ZM59.472 136.299c.912-2.099 2.578-3.331 4.146-4.582 3.994-3.164 8.127-6.157 12.201-9.219l.564-.38c.713-.481 1.492-1.007 2.188-.029a2 2 0 0 1-.133 2.503 7.644 7.644 0 0 1-1.406 1.153c-3.853 2.961-7.72 5.919-11.57 8.902-.716.564-1.4 1.167-2.051 1.805-1.382 1.367-1.959 1.37-3.94-.153ZM56.2 117.662a4.532 4.532 0 0 1-2.114 3.767c-3.978 3.044-7.9 6.172-11.943 9.261a3.4 3.4 0 0 1-1.832.862 3.075 3.075 0 0 1-1.954-.841c-.14-.207.254-1.233.66-1.651a17.558 17.558 0 0 1 2.373-2.132c3.718-2.93 7.44-5.851 11.18-8.747 1.064-.802 2.183-1.593 3.63-.519ZM25.12 158.493a4.17 4.17 0 0 1 2.07-2.832c4.293-3.041 8.632-6.015 12.96-9.006.712-.481 1.45-.979 2.245-.14a2.189 2.189 0 0 1-.317 2.892c-.895.712-1.899 1.28-2.844 1.918-3.36 2.386-6.703 4.798-10.054 7.179-1.771 1.255-2.409 1.239-4.06-.011ZM.428 155.076a13.734 13.734 0 0 1 1.849-2.14c4.005-3.003 8.055-5.94 12.152-8.932.119-.099.247-.185.382-.258.81-.354 1.658-1.118 2.419.009a2.351 2.351 0 0 1-.35 2.72c-.277.262-.578.498-.9.704l-8.957 6.392c-.696.469-1.393.939-2.014 1.503-1.775 1.463-2.119 1.49-4.581.002ZM75.674 102.308a10.52 10.52 0 0 1 1.585-1.745c4.22-2.847 8.482-5.612 12.74-8.4.573-.387 1.12-.756 1.853-.188a1.87 1.87 0 0 1-.004 2.91 17.35 17.35 0 0 1-1.89 1.274l-9.451 6.375c-2.018 1.301-2.628 1.29-4.833-.226Z" fill="#000"/><path d="M92.341 59.041c3.89-.05 6.11 2 6.12 5.73 0 4.34-2.78 7.91-6.31 8.06-3.53.15-6.87-3.26-6.86-7.11.02-4.12 2.71-6.68 7.05-6.68Zm3.24 5.91c0-2.06-1.1-3.09-3.25-3.07a3.849 3.849 0 0 0-4.12 3.69c-.06 2.22 1.64 4.26 3.6 4.32 1.96.06 3.78-2.32 3.77-4.98v.04ZM94.001 122.171a5.792 5.792 0 0 1 4.276 1.526 5.783 5.783 0 0 1 1.854 4.144c-.06 3.29-2.3 8.06-6 8.11-3.7.05-6.76-3.28-6.82-7.24a6.829 6.829 0 0 1 6.69-6.54Zm3.13 5.87a2.795 2.795 0 0 0-.868-2.148 2.78 2.78 0 0 0-2.192-.752c-1.93.13-3.87 2-3.83 3.64 0 2.14 1.91 4.33 3.63 4.27 1.72-.06 3.37-2.72 3.3-5.01h-.04ZM34.001 19.041a15.013 15.013 0 0 1-.21 1.77c-.76 3.31-3.3 5.74-6 5.76-2.7.02-5.7-2.53-6.53-5.65a4.73 4.73 0 0 1 2.07-5.6c1-.77 1.9-2 3-2.36 4.14-1.28 7.67 1.51 7.67 6.08Zm-6.2-3.44a4.6 4.6 0 0 0-3.8 4.07c.09 1.9 2 3.9 3.73 3.91 1.73.01 3.35-2.12 3.39-4.53.04-2.41-1.12-3.48-3.32-3.45ZM54.671 67.041a6.6 6.6 0 0 1-6.73 6.39c-3.38 0-6.31-3.15-6.34-6.84-.03-3.69 2.55-6.71 5.87-6.73 3.14.02 7.14 4.01 7.2 7.18Zm-7.32-4.19c-1.73.1-2.84 1.81-2.68 4.1.16 2.29 1.52 3.58 3.43 3.51 1.91-.07 3.72-1.7 3.66-3.4-.06-1.7-2.76-4.27-4.41-4.18v-.03ZM112.581 19.391c-.09 3.69-3.65 7.28-7.06 7.11-3.12-.15-5.73-3.5-5.89-6.93-.13-2.77 2.3-3.73 3.43-5.58.48-.8 2.2-1.15 3.36-1.17 3.3-.07 6.24 3.22 6.16 6.57Zm-3.06 0a3.636 3.636 0 0 0-3.19-3.8c-1.92-.09-3.69 1.85-3.72 4.07 0 1.9 1.54 3.88 3.11 3.93 1.57.05 3.76-2.18 3.8-4.17v-.03ZM126.201 58.541a24.097 24.097 0 0 1-1.15 3.93c-1.84 3.79-6.2 4.33-9 1.17a8.293 8.293 0 0 1-2-6c.1-2.79 1.18-4.29 3.67-5.13 2.67-.89 4.91-.46 6.44 1.66a25.256 25.256 0 0 1 2.04 4.37Zm-3.18.44c0-1.73-1-3.68-2.3-3.79a5.08 5.08 0 0 0-3 1c-1.35 1-.84 2.45-.44 3.75.63 2 1.92 3 3.36 2.73s2.36-1.84 2.36-3.69h.02ZM57.791 149.701a6.514 6.514 0 0 1 6.302 4.028 6.51 6.51 0 0 1 .488 2.592c0 3.76-2.38 6.52-5.57 6.54-3.19.02-6.65-3.47-6.54-7.12.13-4.36 1.6-5.98 5.32-6.04Zm3.92 6.58a3.668 3.668 0 0 0-3.7-3.65 2.607 2.607 0 0 0-2.48 1.896 2.608 2.608 0 0 0-.07 1.104c0 2.25 1.71 4.34 3.49 4.34 1.54-.03 2.81-1.71 2.76-3.69ZM22.051 87.811c.204-1.061.523-2.097.95-3.09a4.87 4.87 0 0 1 4.74-2.79c2.83 0 6.13 3.65 6.44 7a6 6 0 0 1-5 6.39c-3.72.83-7.18-2.38-7.13-7.51Zm2.93.06c-.07 2.44.81 4 2.19 4.47 1.38.47 2.72.17 3.3-1a4.531 4.531 0 0 0 .23-3.47 9.14 9.14 0 0 0-3-3c-.27-.19-1.38.31-1.71.77a9.418 9.418 0 0 0-.99 2.23h-.02ZM69.191 5.781c.19-1.8.47-4.09 2.88-5 2.65-1 5.45-1.3 7.81.69a4.9 4.9 0 0 1 1.49 2.94 9.301 9.301 0 0 1-.58 4c-1.19 3.25-4.37 5.11-7.25 4.46-2.44-.52-4.32-3.42-4.35-7.09Zm2.92.33c0 2.3 1.22 4.11 2.76 4 1.84-.12 3.75-2.51 3.72-4.67 0-1.65-.91-2.37-3-2.42-2.35-.04-3.45.92-3.48 3.09ZM64.241 39.981c-.163.782-.384 1.55-.66 2.3-1.23 3.06-4.14 4.63-6.77 3.73a6.38 6.38 0 0 1-3.74-7.54c.75-2.19 1.65-4.59 4.17-5.31 3.76-1.12 7.07 1.94 7 6.82Zm-2.88-1c-.16-1.23-.55-2.53-2.09-3-1.89-.63-2.27 1.06-2.93 2.06a3.31 3.31 0 0 0 .41 4.36 2.998 2.998 0 0 0 2.41.56c1.34-.24 2.25-2.1 2.2-4.01v.03ZM122.751 100.241a5.54 5.54 0 0 1-4.076-1.46 5.533 5.533 0 0 1-1.774-3.95c-.07-3.22 2.65-6.44 5.53-6.52 3.73-.12 6.89 2.42 7 5.6.09 3.53-2.78 6.26-6.68 6.33Zm-.8-8.91c-.44 1.71-3.42 2.77-1.41 5.16 1.11 1.33 2.62 1.12 4.05.39a2.872 2.872 0 0 0 1.86-3.26c-.27-1.45-1.75-2.18-4.45-2.29h-.05ZM9.231 107.681c.05 3.37-2 5.71-5 5.8a6.74 6.74 0 0 1-6.62-6.19 5.57 5.57 0 0 1 5.69-5.93 6.148 6.148 0 0 1 5.93 6.32Zm-5.93-3.34a2.87 2.87 0 0 0-2.7 2.94 3.578 3.578 0 0 0 3.4 3.28 2.447 2.447 0 0 0 2.38-2.76 3.26 3.26 0 0 0-3.08-3.46ZM6.431 35.741a7.2 7.2 0 0 1-6.93 6.75c-2.81-.07-5-2.66-5-5.91 0-3.75 2.44-6.41 5.72-6.36 3.65.06 6.28 2.42 6.21 5.52Zm-9 1c0 1.68 1 2.84 2.31 2.81a4.41 4.41 0 0 0 3.79-3.78c0-1.46-1.58-2.69-3.39-2.66-1.65.01-2.77 1.5-2.7 3.61l-.01.02ZM48.361 119.871c3.87 0 6.79 2.29 6.76 5.37a6.43 6.43 0 0 1-6 6c-3 .1-5.88-3-5.93-6.38-.07-3.19 1.81-4.96 5.17-4.99Zm-1.74 3.45c-.44 2.86 0 4.14 1.45 4.77 1.45.63 2.44-.13 3.31-1.06a2.154 2.154 0 0 0 .602-2.35 2.167 2.167 0 0 0-.442-.73c-1.42-1.55-3.17-1.42-4.92-.63ZM11.551 145.261c4.2 0 7 2.44 6.73 5.49a5.802 5.802 0 0 1-4.045 5.412 5.805 5.805 0 0 1-2.375.238c-3.25-.45-6.3-4.67-5.67-7.9.28-1.43.92-2.57 2.6-2.77 1.13-.12 2.21-.38 2.76-.47Zm-2.28 3.89c.6 3.18 2.08 4.75 3.91 4.32a3.141 3.141 0 0 0 2-3.49c-.51-1.94-2.68-2.28-5.91-.83ZM71.181 89.661c3.55 0 6 2 5.92 4.78a6.83 6.83 0 0 1-6.75 6.39 5.348 5.348 0 0 1-5.43-5.4c.08-3.48 2.58-5.81 6.26-5.77Zm3.63 4.16a19.121 19.121 0 0 0-3.39-1.28 2.69 2.69 0 0 0-3.19 1.89 3.66 3.66 0 0 0 .7 3c1.1 1.09 2.62.68 3.68-.34a21.632 21.632 0 0 0 2.2-3.27ZM-6.829 74.041c0-2.8 2.52-4.87 5.83-4.79a5.24 5.24 0 0 1 5.14 5.35 5.77 5.77 0 0 1-5.39 6c-3.12.01-5.59-2.89-5.58-6.56Zm3-.74c-.21 2 .17 3.76 2.16 4.25a2.76 2.76 0 0 0 2.37-1.33 4.3 4.3 0 0 0-.4-3.44c-1.22-1.43-2.71-.52-4.16.49l.03.03Z" fill="#00EE4D"/></svg>