<svg width="125" height="163" fill="none" xmlns="http://www.w3.org/2000/svg"><g clip-path="url(#a)"><path d="M59.331 111.359c1.355 2.224 1.282 2.7-.305 3.991-5.202 4.24-10.373 8.507-15.562 12.749-.947.775-1.888 1.56-2.886 2.261a2.88 2.88 0 0 1-3.65-.005 7.556 7.556 0 0 1 1.15-2.011c2.028-1.851 4.154-3.576 6.244-5.336 3.063-2.603 6.115-5.223 9.242-7.822a60.29 60.29 0 0 1 3.983-3.031 8.893 8.893 0 0 1 1.784-.796ZM85.2 112.117c1.277 2.763 1.252 2.78-.551 4.233a3622.784 3622.784 0 0 1-15.326 11.965c-1.577 1.236-2.09 1.25-4.248-.237.468-.64.989-1.24 1.557-1.793a314.063 314.063 0 0 1 7.286-5.886 555.87 555.87 0 0 1 8.52-6.544c.816-.613 1.737-1.092 2.761-1.738ZM131.643 46.98c-2.616 1.966-5.201 3.96-7.859 5.882a3.162 3.162 0 0 1-1.849.597 1.893 1.893 0 0 1-1.472-.794 1.819 1.819 0 0 1 .492-1.556 36.721 36.721 0 0 1 4.132-3.573c4.311-2.979 8.63-5.964 12.977-8.907l.568-.392c.658-.455 1.437-.787 2.03-.018a2.002 2.002 0 0 1-.01 2.536 6.381 6.381 0 0 1-1.41 1.144l-7.511 5.19-.088-.109ZM17.371 124.993c.49-1.931 1.907-2.923 3.188-3.918 1.914-1.505 4.007-2.769 5.966-4.208 2.946-2.157 5.835-4.397 8.81-6.599a20.95 20.95 0 0 1 2.035-1.224c1.413 2.342 1.382 2.826-.43 4.162-5.292 3.986-10.599 7.933-15.897 11.911a2.672 2.672 0 0 1-3.672-.124ZM83.526 73.937c.412-.6.882-1.157 1.404-1.663 3.148-2.48 6.302-4.951 9.574-7.394 2.013-1.501 4.113-2.843 6.194-4.281.757-.523 1.646-1.137 2.368-.092a2.14 2.14 0 0 1-.577 3L87.715 74.263c-1.597 1.225-2.211 1.163-4.189-.327ZM51.311 99.86a17.77 17.77 0 0 1 1.957-2.058c4.748-3.56 9.538-7.078 14.308-10.605a5.53 5.53 0 0 1 .749-.518c1.208-.591 2.197.013 2.022 1.362a3.14 3.14 0 0 1-.986 1.897 332.756 332.756 0 0 1-9.012 6.994c-1.517 1.146-3.126 2.16-4.697 3.246-1.368.958-2.625.951-4.341-.319ZM135.558 62.934a4.535 4.535 0 0 1-2.073 3.79c-3.942 3.09-7.828 6.262-11.837 9.397a3.399 3.399 0 0 1-1.821.882 3.07 3.07 0 0 1-1.964-.82c-.142-.205.24-1.235.641-1.658a17.55 17.55 0 0 1 2.349-2.158c3.684-2.972 7.374-5.935 11.081-8.873 1.054-.814 2.164-1.617 3.624-.56ZM104.94 104.114a4.173 4.173 0 0 1 2.039-2.855c4.259-3.09 8.563-6.113 12.856-9.153.708-.489 1.44-.995 2.244-.165a2.193 2.193 0 0 1-.284 2.895c-.887.722-1.884 1.302-2.822 1.95-3.333 2.425-6.648 4.874-9.972 7.293-1.757 1.275-2.395 1.266-4.061.035ZM80.211 100.977a13.723 13.723 0 0 1 1.826-2.161c3.97-3.048 7.987-6.03 12.05-9.07.117-.1.244-.187.379-.261.806-.363 1.645-1.137 2.418-.018a2.35 2.35 0 0 1-.318 2.723 6.182 6.182 0 0 1-.892.714l-8.885 6.493c-.69.477-1.382.955-1.996 1.525-1.759 1.483-2.102 1.514-4.582.055ZM37.549 154.541a13.732 13.732 0 0 1 1.822-2.147c3.971-3.048 8.037-6.065 12.06-9.075.113-.103.24-.191.378-.262.806-.363 1.604-1.108 2.424-.01a2.342 2.342 0 0 1-.385 2.697c-.27.266-.564.506-.879.717l-8.884 6.492c-.69.478-1.382.955-1.997 1.526-1.71 1.499-2.077 1.497-4.54.062ZM57.331 45.36c1.355 2.223 1.282 2.699-.305 3.99-5.202 4.24-10.373 8.506-15.562 12.749-.947.776-1.888 1.56-2.886 2.261a2.88 2.88 0 0 1-3.65-.005 7.568 7.568 0 0 1 1.15-2.011c2.028-1.85 4.154-3.576 6.244-5.336 3.063-2.603 6.115-5.223 9.242-7.822a60.13 60.13 0 0 1 3.983-3.031 8.868 8.868 0 0 1 1.784-.796ZM83.2 46.117c1.277 2.763 1.252 2.78-.551 4.233-5.097 4-10.205 7.989-15.326 11.965-1.577 1.236-2.09 1.25-4.248-.237.468-.64.989-1.24 1.557-1.793a310.946 310.946 0 0 1 7.286-5.886 554.642 554.642 0 0 1 8.52-6.544c.816-.613 1.737-1.092 2.761-1.738ZM15.371 58.993c.49-1.93 1.907-2.923 3.188-3.918 1.914-1.505 4.007-2.769 5.966-4.208 2.946-2.157 5.835-4.397 8.81-6.599a20.992 20.992 0 0 1 2.035-1.224c1.413 2.342 1.382 2.826-.43 4.162-5.292 3.986-10.599 7.933-15.897 11.911a2.67 2.67 0 0 1-3.672-.124ZM81.526 7.937c.412-.6.882-1.157 1.404-1.663 3.148-2.48 6.302-4.951 9.574-7.394 2.013-1.501 4.113-2.843 6.194-4.281.757-.523 1.646-1.137 2.368-.093a2.141 2.141 0 0 1-.577 3L85.715 8.264c-1.597 1.225-2.211 1.163-4.189-.327ZM49.311 33.86a17.77 17.77 0 0 1 1.957-2.058c4.748-3.56 9.538-7.078 14.308-10.605a5.53 5.53 0 0 1 .749-.518c1.208-.591 2.197.013 2.022 1.362a3.14 3.14 0 0 1-.986 1.897 332.756 332.756 0 0 1-9.012 6.994c-1.517 1.146-3.126 2.16-4.697 3.246-1.368.958-2.625.951-4.341-.319ZM133.558-3.066a4.535 4.535 0 0 1-2.073 3.79c-3.942 3.09-7.828 6.262-11.837 9.397a3.399 3.399 0 0 1-1.821.882 3.07 3.07 0 0 1-1.964-.82c-.142-.205.24-1.235.641-1.658a17.551 17.551 0 0 1 2.349-2.158c3.684-2.971 7.374-5.935 11.081-8.873 1.054-.814 2.164-1.617 3.624-.56ZM102.94 38.114a4.172 4.172 0 0 1 2.039-2.855c4.259-3.09 8.563-6.113 12.856-9.153.708-.489 1.44-.995 2.244-.165a2.194 2.194 0 0 1-.284 2.895c-.887.723-1.884 1.302-2.822 1.95-3.333 2.425-6.648 4.874-9.972 7.293-1.757 1.275-2.395 1.266-4.061.035ZM78.211 34.977a13.712 13.712 0 0 1 1.826-2.161c3.97-3.048 7.987-6.03 12.05-9.07.117-.099.244-.187.379-.261.806-.363 1.645-1.137 2.418-.018a2.35 2.35 0 0 1-.318 2.723 6.19 6.19 0 0 1-.892.714l-8.885 6.493c-.69.477-1.382.955-1.996 1.525-1.759 1.483-2.102 1.514-4.582.055ZM35.549 88.541a13.732 13.732 0 0 1 1.822-2.147c3.971-3.048 8.037-6.065 12.06-9.075.113-.103.24-.191.378-.262.806-.363 1.604-1.108 2.424-.01a2.34 2.34 0 0 1-.385 2.697c-.27.266-.564.506-.879.717l-8.884 6.492c-.69.478-1.382.955-1.997 1.526-1.71 1.499-2.077 1.497-4.54.062Z" fill="#000"/><path d="M7.66 24.8c0-3.55 2.92-6.26 6.74-6.33 3.82-.07 6.68 2.58 6.66 6.31 0 4.09-3.2 7.67-6.81 7.68-3.86.01-6.63-3.21-6.59-7.66Zm10.52.2a3.44 3.44 0 0 0-3.66-3.62 3.61 3.61 0 0 0-3.83 3.45c-.15 2.79 1.08 4.55 3.29 4.68 2.02.11 4.12-2.1 4.2-4.51ZM79 19a14.973 14.973 0 0 1-.21 1.77c-.76 3.31-3.3 5.74-6 5.76-2.7.02-5.7-2.53-6.53-5.65a4.73 4.73 0 0 1 2.07-5.6c1-.77 1.9-2 3-2.36C75.47 11.64 79 14.43 79 19Zm-6.2-3.44a4.6 4.6 0 0 0-3.8 4.07c.09 1.9 2 3.9 3.73 3.91 1.73.01 3.35-2.12 3.39-4.53.04-2.41-1.12-3.48-3.32-3.45ZM99.67 67a6.6 6.6 0 0 1-6.73 6.39c-3.38 0-6.31-3.15-6.34-6.84-.03-3.69 2.55-6.71 5.87-6.73 3.14.02 7.14 4.01 7.2 7.18Zm-7.32-4.19c-1.73.1-2.84 1.81-2.68 4.1.16 2.29 1.52 3.58 3.43 3.51 1.91-.07 3.72-1.7 3.66-3.4-.06-1.7-2.76-4.27-4.41-4.18v-.03ZM102.79 149.66a6.508 6.508 0 0 1 6.79 6.62c0 3.76-2.38 6.52-5.57 6.54-3.19.02-6.65-3.47-6.54-7.12.13-4.36 1.6-5.98 5.32-6.04Zm3.92 6.58a3.666 3.666 0 0 0-2.291-3.381 3.656 3.656 0 0 0-1.409-.269 2.616 2.616 0 0 0-1.958.919 2.605 2.605 0 0 0-.592 2.081c0 2.25 1.71 4.34 3.49 4.34 1.54-.03 2.81-1.71 2.76-3.69ZM67.05 87.77c.204-1.061.523-2.097.95-3.09a4.87 4.87 0 0 1 4.74-2.79c2.83 0 6.13 3.65 6.44 7a6 6 0 0 1-5 6.39c-3.72.83-7.18-2.38-7.13-7.51Zm2.93.06c-.07 2.44.81 4 2.19 4.47 1.38.47 2.72.17 3.3-1a4.531 4.531 0 0 0 .23-3.47 9.141 9.141 0 0 0-3-3c-.27-.19-1.38.31-1.71.77a9.418 9.418 0 0 0-.99 2.23h-.02ZM114.19 5.74c.19-1.8.47-4.09 2.88-5 2.65-1 5.45-1.3 7.81.69a4.9 4.9 0 0 1 1.49 2.94 9.307 9.307 0 0 1-.58 4c-1.19 3.25-4.37 5.11-7.25 4.46-2.44-.52-4.32-3.42-4.35-7.09Zm2.92.33c0 2.3 1.22 4.11 2.76 4 1.84-.12 3.75-2.51 3.72-4.67 0-1.65-.91-2.37-3-2.42-2.35-.04-3.45.92-3.48 3.09ZM15.28 125.93c3.24 0 5.77 2.85 5.77 6.45A6.269 6.269 0 0 1 15 139c-3.29 0-6.19-3.29-6.21-7-.06-3.53 2.72-6.09 6.49-6.07Zm2.86 6.45c0-1.91-1.39-3.57-2.94-3.6a3.648 3.648 0 0 0-3.53 3.39c.09 2.11 1.81 4 3.56 3.85a3.531 3.531 0 0 0 2.91-3.64ZM109.24 39.94c-.164.782-.384 1.55-.66 2.3-1.23 3.06-4.14 4.63-6.77 3.73a6.381 6.381 0 0 1-3.74-7.54c.75-2.19 1.65-4.59 4.17-5.31 3.76-1.12 7.07 1.94 7 6.82Zm-2.88-1c-.16-1.23-.55-2.53-2.09-3-1.89-.63-2.27 1.06-2.93 2.06a3.31 3.31 0 0 0 .41 4.36 2.999 2.999 0 0 0 2.41.56c1.34-.24 2.25-2.1 2.2-4.01v.03ZM5.93 58.82c.12-2.53 3.32-4.74 6.58-4.56 3.26.18 5.34 2.83 5.09 6.42s-2.52 6.07-5.36 5.91c-3.24-.18-6.48-4.17-6.31-7.77Zm8.77 1.38c0-2-1.2-3.22-2.85-3.11-1.65.11-3 1.51-2.91 2.83.1 1.59 2.19 3.78 3.56 3.73 1.18-.05 2.24-1.72 2.2-3.45ZM54.23 107.64c.05 3.37-2 5.71-5 5.8a6.74 6.74 0 0 1-6.62-6.19 5.57 5.57 0 0 1 5.69-5.93 6.148 6.148 0 0 1 5.93 6.32Zm-5.93-3.34a2.87 2.87 0 0 0-2.7 2.94 3.579 3.579 0 0 0 3.4 3.28 2.439 2.439 0 0 0 1.805-.85 2.44 2.44 0 0 0 .575-1.91 3.258 3.258 0 0 0-3.08-3.46ZM51.43 35.7a7.2 7.2 0 0 1-6.93 6.75c-2.81-.07-5-2.66-5-5.91 0-3.75 2.44-6.41 5.72-6.36 3.65.06 6.28 2.42 6.21 5.52Zm-9 1c0 1.68 1 2.84 2.31 2.81a4.41 4.41 0 0 0 3.79-3.78c0-1.46-1.58-2.69-3.39-2.66-1.65.01-2.77 1.5-2.7 3.61l-.01.02ZM6.13 103.36c-3.3-.1-6.2-3.45-6.13-7.08.06-2.61 2.93-5 6-5a6.23 6.23 0 0 1 6 6.24 5.62 5.62 0 0 1-5.87 5.84Zm3-5.93a3.47 3.47 0 0 0-3.29-3.27A3 3 0 0 0 3 96.94a3.78 3.78 0 0 0 3.53 3.49 2.84 2.84 0 0 0 2.59-3h.01ZM93.36 119.83c3.87 0 6.79 2.29 6.76 5.37a6.43 6.43 0 0 1-6 6c-3 .1-5.88-3-5.93-6.38-.07-3.19 1.81-4.96 5.17-4.99Zm-1.74 3.45c-.44 2.86 0 4.14 1.45 4.77 1.45.63 2.44-.13 3.31-1.06a2.153 2.153 0 0 0 .727-1.506 2.16 2.16 0 0 0-.567-1.574c-1.42-1.55-3.17-1.42-4.92-.63ZM56.55 145.22c4.2 0 7 2.44 6.73 5.49a5.795 5.795 0 0 1-1.967 4.237 5.788 5.788 0 0 1-4.453 1.413c-3.25-.45-6.3-4.67-5.67-7.9.28-1.43.92-2.57 2.6-2.77 1.13-.12 2.21-.38 2.76-.47Zm-2.28 3.89c.6 3.18 2.08 4.75 3.91 4.32a3.14 3.14 0 0 0 2-3.49c-.51-1.94-2.68-2.28-5.91-.83ZM116.18 89.62c3.55 0 6 2 5.92 4.78a6.83 6.83 0 0 1-6.75 6.39 5.352 5.352 0 0 1-5.43-5.4c.08-3.48 2.58-5.81 6.26-5.77Zm3.63 4.16a19.109 19.109 0 0 0-3.39-1.28 2.69 2.69 0 0 0-3.19 1.89 3.664 3.664 0 0 0 .7 3c1.1 1.09 2.62.68 3.68-.34a21.632 21.632 0 0 0 2.2-3.27ZM38.17 74c0-2.8 2.52-4.87 5.83-4.79a5.242 5.242 0 0 1 5.14 5.35 5.77 5.77 0 0 1-5.39 6c-3.12.01-5.59-2.89-5.58-6.56Zm3-.74c-.21 2 .17 3.76 2.16 4.25a2.76 2.76 0 0 0 2.37-1.33 4.298 4.298 0 0 0-.4-3.44c-1.22-1.43-2.71-.52-4.16.49l.03.03Z" fill="#00EE4D"/></g><defs><clipPath id="a"><path fill="#fff" d="M0 0h174.42v162.82H0z"/></clipPath></defs></svg>