<svg width="242" height="72" fill="none" xmlns="http://www.w3.org/2000/svg"><g clip-path="url(#a)"><path d="m3.99 64.663 7.818-4.814-.237-.82-7.525 2.439c.2-4.352 3.644-4.562 5.666-7.295-.801-1.597-1.348-4.204-2.696-5.003-4.902-2.754-4.337-7.315-3.645-11.961.656-4.205.565-4.646-3.134-6.475-1.202-5.844 2.096-8.24 5.995-9.544 5.303-1.766 10.733-2.985 16.09-4.373a15.34 15.34 0 0 0 3.972-1.492c-7.015-.42-13.775 1.492-20.827 2.123a19.155 19.155 0 0 1 4.209-2.102c6.614-1.324 13.101-3.174 19.807-4.204 9.84-1.367 19.716-2.607 29.591-3.385 27.88-2.228 55.722-4.351 83.674-5.991A924.322 924.322 0 0 1 199.854 0c10.842 0 21.702 1.261 32.525 2.207 1.987.168 4.829.883 5.649 2.46 1.986 3.847 5.011 7.673 3.644 12.823-.783 2.88-2.35 5.571-2.696 8.409a52.28 52.28 0 0 0 .564 9.166c.039 3.406-.785 6.752-2.368 9.628-1.258 2.753-1.094 6.306-1.677 10.51l-5.466 3.112 1.822 1.43c-.273.167-.547.525-.82.525-5.466 0-10.933-.274-16.399 0-3.863.168-7.708 1.156-11.571 1.366-3.863.21-8.036-.294-12.026 0-3.991.294-7.562 1.198-11.352 1.577-13.448 1.408-26.877 3.153-40.343 3.952-24.726 1.45-49.453 2.396-74.18 3.448-13.155.546-26.33.945-39.504 1.324-3.644.105-7.47 0-11.188-.273-1.378-.27-2.686-.896-3.826-1.83-1.986-1.324-3.79-2.88-6.651-5.17Z" fill="#D9D9D9"/></g><defs><clipPath id="a"><path fill="#fff" d="M0 0h242v72H0z"/></clipPath></defs></svg>