<svg width="312" height="45" fill="none" xmlns="http://www.w3.org/2000/svg"><path d="m5.163 40.428 10.077-3.01-.306-.513-9.7 1.525c.258-2.72 4.697-2.852 7.304-4.56-1.033-1-1.738-2.63-3.476-3.129-6.319-1.721-5.59-4.573-4.698-7.478.846-2.629.728-2.905-4.04-4.048-1.55-3.654 2.701-5.152 7.728-5.967 6.835-1.104 13.835-1.866 20.74-2.734 1.77-.19 3.49-.504 5.122-.933-9.044-.263-17.758.933-26.849 1.328a39.602 39.602 0 0 1 5.426-1.315c8.527-.828 16.89-1.984 25.533-2.628C50.708 6.11 63.44 5.336 76.171 4.85c35.939-1.393 71.83-2.72 107.863-3.746A2453.77 2453.77 0 0 1 257.65 0c13.976 0 27.975.789 41.928 1.38 2.56.105 6.225.552 7.282 1.538 2.56 2.405 6.459 4.797 4.698 8.017-1.01 1.8-3.03 3.483-3.477 5.257-.104 1.919.14 3.839.728 5.73.049 2.13-1.012 4.222-3.053 6.02-1.621 1.721-1.41 3.943-2.161 6.571l-7.047 1.945 2.349.894c-.352.105-.705.329-1.057.329-7.047 0-14.094-.171-21.141 0-4.979.105-9.935.723-14.915.854-4.98.131-10.359-.184-15.503 0s-9.748.75-14.634.986c-17.335.88-34.647 1.971-52.005 2.47-31.875.907-63.751 1.499-95.626 2.156-16.959.342-33.942.591-50.925.828-4.697.066-9.63 0-14.422-.17-1.777-.17-3.463-.56-4.933-1.144-2.56-.828-4.886-1.8-8.573-3.233Z" fill="#D9D9D9"/></svg>